<svg id="Capa_1" enable-background="new 0 0 512 512" height="512" viewBox="0 0 512 512" width="512" xmlns="http://www.w3.org/2000/svg">

<path d="m328.822 0h-145.644c-60.538 0-110.784 43.247-120.479 100h386.602c-9.695-56.753-59.941-100-120.479-100zm-162.822 70c-8.284 0-15-6.716-15-15s6.716-15 15-15 15 6.716 15 15-6.716 15-15 15zm60 0c-8.284 0-15-6.716-15-15s6.716-15 15-15 15 6.716 15 15-6.716 15-15 15zm60 0c-8.284 0-15-6.716-15-15s6.716-15 15-15 15 6.716 15 15-6.716 15-15 15zm60 0c-8.284 0-15-6.716-15-15s6.716-15 15-15 15 6.716 15 15-6.716 15-15 15z"/><path d="m472 130h-432c-22.091 0-40 17.909-40 40v302c0 22.091 17.909 40 40 40h432c22.091 0 40-17.909 40-40v-302c0-22.091-17.909-40-40-40zm-36 333h-360c-8.284 0-15-6.716-15-15s6.716-15 15-15h360c8.284 0 15 6.716 15 15s-6.716 15-15 15zm15-86.95c0 8.284-6.716 15-15 15h-120-120-120c-8.284 0-15-6.716-15-15v-180c0-8.284 6.716-15 15-15h120 120 120c8.284 0 15 6.716 15 15z"/><path d="m181 211.05h-90v150h90zm-22.685 59.638-21.493 41.584c-.687 1.329-2.058 2.164-3.553 2.164h-11.901c-1.406 0-2.709-.738-3.432-1.945-.723-1.206-.758-2.703-.095-3.943l18.06-33.736h-18.665c-2.209 0-4-1.791-4-4v-8.681c0-2.209 1.791-4 4-4h34.444c1.564 0 2.984.912 3.636 2.333l3.081 6.721c.514 1.119.483 2.411-.082 3.503z"/><path d="m301 211.05h-90v150h90zm-22.685 59.638-21.493 41.584c-.687 1.329-2.058 2.164-3.553 2.164h-11.901c-1.406 0-2.709-.738-3.432-1.945-.723-1.206-.758-2.703-.095-3.943l18.06-33.736h-18.665c-2.209 0-4-1.791-4-4v-8.681c0-2.209 1.791-4 4-4h34.444c1.564 0 2.984.912 3.636 2.333l3.081 6.721c.514 1.119.483 2.411-.082 3.503z"/><path d="m331 361.05h90v-150h-90zm22.238-98.919c0-2.209 1.791-4 4-4h34.444c1.564 0 2.984.912 3.636 2.333l3.081 6.721c.513 1.118.482 2.41-.083 3.503l-21.493 41.584c-.687 1.329-2.058 2.164-3.553 2.164h-11.901c-1.406 0-2.709-.738-3.432-1.945-.723-1.206-.758-2.703-.095-3.943l18.06-33.736h-18.665c-2.209 0-4-1.791-4-4v-8.681z"/></svg>