<?xml version="1.0" encoding="iso-8859-1"?>
<!-- Generator: Adobe Illustrator 19.0.0, SVG Export Plug-In . SVG Version: 6.00 Build 0)  -->
<svg version="1.1" id="Layer_1" xmlns="http://www.w3.org/2000/svg" xmlns:xlink="http://www.w3.org/1999/xlink" x="0px" y="0px"
	 viewBox="0 0 512 512" style="enable-background:new 0 0 512 512;" xml:space="preserve">
<g>
	<g>
		<path d="M373.333,202.667H32c-17.643,0-32,14.357-32,32v128c0,17.643,14.357,32,32,32h341.333c17.643,0,32-14.357,32-32v-128
			C405.333,217.024,390.976,202.667,373.333,202.667z M105.472,260.885C95.637,280,81.216,311.979,76.416,331.029
			c5.035,0.853,8.917,5.035,8.917,10.304c0,5.888-4.779,10.667-10.667,10.667H53.333c-5.888,0-10.667-4.779-10.667-10.667
			c0-5.888,4.779-10.667,10.667-10.667h1.365c3.883-19.221,15.936-46.677,24.149-64H64c0,5.888-4.779,10.667-10.667,10.667
			s-10.667-4.779-10.667-10.667V256c0-5.888,4.779-10.667,10.667-10.667H96c3.712,0,7.168,1.941,9.109,5.12
			C107.051,253.611,107.179,257.579,105.472,260.885z M149.333,362.667c0,5.888-4.779,10.667-10.667,10.667S128,368.555,128,362.667
			v-128c0-5.888,4.779-10.667,10.667-10.667s10.667,4.779,10.667,10.667V362.667z M233.472,260.885
			c-9.835,19.115-24.256,51.093-29.056,70.144c5.035,0.853,8.917,5.035,8.917,10.304c0,5.888-4.779,10.667-10.667,10.667h-21.333
			c-5.888,0-10.667-4.779-10.667-10.667c0-5.888,4.779-10.667,10.667-10.667h1.365c3.883-19.221,15.936-46.677,24.149-64H192
			c0,5.888-4.779,10.667-10.667,10.667s-10.667-4.779-10.667-10.667V256c0-5.888,4.779-10.667,10.667-10.667H224
			c3.712,0,7.168,1.941,9.109,5.12C235.051,253.611,235.179,257.579,233.472,260.885z M277.333,362.667
			c0,5.888-4.779,10.667-10.667,10.667S256,368.555,256,362.667v-128c0-5.888,4.779-10.667,10.667-10.667
			s10.667,4.779,10.667,10.667V362.667z M361.472,260.885c-9.835,19.115-24.256,51.093-29.056,70.144
			c5.035,0.853,8.917,5.035,8.917,10.304c0,5.888-4.779,10.667-10.667,10.667h-21.333c-5.888,0-10.667-4.779-10.667-10.667
			c0-5.888,4.779-10.667,10.667-10.667h1.365c3.883-19.221,15.936-46.677,24.149-64H320c0,5.888-4.779,10.667-10.667,10.667
			s-10.667-4.779-10.667-10.667V256c0-5.888,4.779-10.667,10.667-10.667H352c3.712,0,7.168,1.941,9.109,5.12
			C363.051,253.611,363.179,257.579,361.472,260.885z"/>
	</g>
</g>
<g>
	<g>
		<path d="M480,160c-5.888,0-10.667,4.779-10.667,10.667V288h-32c-5.888,0-10.667,4.779-10.667,10.667s4.779,10.667,10.667,10.667
			H480c5.888,0,10.667-4.779,10.667-10.667v-128C490.667,164.779,485.888,160,480,160z"/>
	</g>
</g>
<g>
	<g>
		<circle cx="480" cy="149.333" r="32"/>
	</g>
</g>
<g>
	<g>
		<path d="M394.667,224c-5.888,0-10.667,4.779-10.667,10.667s4.779,10.667,10.667,10.667V352c-5.888,0-10.667,4.779-10.667,10.667
			s4.779,10.667,10.667,10.667h10.667V224H394.667z"/>
	</g>
</g>
<g>
	<g>
		<path d="M426.667,225.963v145.408C439.061,366.955,448,355.221,448,341.333V256C448,242.112,439.061,230.379,426.667,225.963z"/>
	</g>
</g>
<g>
</g>
<g>
</g>
<g>
</g>
<g>
</g>
<g>
</g>
<g>
</g>
<g>
</g>
<g>
</g>
<g>
</g>
<g>
</g>
<g>
</g>
<g>
</g>
<g>
</g>
<g>
</g>
<g>
</g>
</svg>
